<?xml version="1.0" standalone="no"?><!DOCTYPE svg PUBLIC "-//W3C//DTD SVG 1.1//EN" "http://www.w3.org/Graphics/SVG/1.1/DTD/svg11.dtd"><svg t="1712883611718" class="icon" viewBox="0 0 1024 1024" version="1.1" xmlns="http://www.w3.org/2000/svg" p-id="34959" xmlns:xlink="http://www.w3.org/1999/xlink" width="256" height="256"><path d="M614.912 615.424l-95.744 72.704-95.744-72.704s-231.936-88.576-183.296-356.352c30.72-168.96 182.272-212.992 273.408-213.504 91.136 0 242.688 44.032 272.896 212.992 48.64 268.288-171.52 356.864-171.52 356.864z" fill="#484848" p-id="34960"></path><path d="M518.144 98.304c4.608 0 7.168 0.512 7.168 0.512s190.464-26.624 246.784 242.688c18.432 2.56 24.064-11.776 24.064-11.776s-21.504-257.024-270.848-257.024h-7.168v25.6z" fill="#74797D" p-id="34961"></path><path d="M782.336 363.52c15.36 4.096 19.968 27.648 10.24 52.224s-30.72 40.96-46.08 36.352c-15.36-4.096-19.968-27.648-10.24-52.224 9.728-24.064 30.208-40.448 46.08-36.352z" fill="#FFDDB8" p-id="34962"></path><path d="M253.952 362.496c-15.36 4.096-19.968 28.16-10.24 52.736 10.24 24.576 30.72 41.472 46.08 36.864 15.36-4.096 19.968-28.16 10.24-52.736-9.216-24.576-30.208-41.472-46.08-36.864z" fill="#F5D4B1" p-id="34963"></path><path d="M513.024 987.136h353.792s-17.408-203.776-259.072-235.52c-66.048-4.096-94.72-2.56-94.72-2.56v238.08z" fill="#3B5E7C" p-id="34964"></path><path d="M511.488 987.136H159.232s17.408-203.776 258.56-235.52c65.536-4.096 94.208-2.56 94.208-2.56v238.08z" fill="#283F53" p-id="34965"></path><path d="M424.448 619.52h186.368v286.208H424.448V619.52z" fill="#FFDDB8" p-id="34966"></path><path d="M424.448 621.568h186.368v47.616l-186.368 93.184v-140.8z" fill="#E5C6A5" p-id="34967"></path><path d="M513.024 986.624h58.88c7.68-10.24 99.84-217.088 99.328-220.16-0.512-2.048-120.832 19.456-120.832 19.456l-37.376-21.504v222.208z" fill="#FFFFFF" p-id="34968"></path><path d="M544.768 952.832s2.56 25.088 22.528 2.048c19.968-23.04-48.128-124.928-48.128-124.928l25.6 122.88z" fill="#3B5E7C" p-id="34969"></path><path d="M519.68 986.624H460.8c-7.68-10.752-99.84-217.088-99.328-220.16 0.512-2.048 123.904 18.944 123.904 18.944l34.304-17.408v218.624z" fill="#E0ECFF" p-id="34970"></path><path d="M614.912 712.704l63.488 43.008s1.536 121.344 0 116.736c-1.536-4.608-161.792-104.96-161.792-104.96l98.304-54.784z" fill="#FFFFFF" p-id="34971"></path><path d="M523.264 829.952S455.68 931.84 475.648 954.88c19.968 23.04 22.528-2.048 22.528-2.048l25.088-122.88z" fill="#283F53" p-id="34972"></path><path d="M418.816 712.704l-63.488 43.008s-1.536 121.344 0 116.736c1.536-4.608 161.792-104.96 161.792-104.96l-98.304-54.784z" fill="#FFFFFF" p-id="34973"></path><path d="M517.12 840.704s91.648 65.536 92.672 22.528v-73.728s-7.68-20.48-41.984 0c-48.128 26.624-50.688 28.672-50.688 28.672v22.528z" fill="#3B5E7C" p-id="34974"></path><path d="M522.24 840.192s-91.648 66.048-92.672 23.04V788.48s7.68-20.48 41.984 0c48.128 27.136 50.688 28.672 50.688 28.672v23.04z" fill="#283F53" p-id="34975"></path><path d="M253.44 817.664v169.472h-97.28c0.512 0 9.728-97.792 97.28-169.472z m614.912 169.472h-97.28v-169.472c87.552 71.68 97.28 169.472 97.28 169.472z" fill="#E0ECFF" p-id="34976"></path><path d="M311.296 538.624c40.96 69.12 172.032 114.176 204.288 115.712V183.808c-137.216 0-237.056 105.472-237.056 235.52 0 44.032 12.288 83.968 32.768 119.296z" fill="#F5D4B1" p-id="34977"></path><path d="M719.36 538.624c-41.472 69.12-174.08 114.176-206.336 115.712V183.808c138.752 0 239.616 105.472 239.616 235.52 0 44.032-12.288 84.48-33.28 119.296z" fill="#FFDDB8" p-id="34978"></path><path d="M605.696 164.352s-120.32 141.312-323.584 204.8C237.056 303.616 247.296 235.52 247.296 235.52s176.64-124.928 358.4-71.168z" fill="#484848" p-id="34979"></path><path d="M622.08 573.44s115.712-46.592 145.408-104.448c19.456 3.584 14.336 12.8 14.336 12.8s-43.008 55.808-152.064 105.472c-43.008 10.24-7.68-13.824-7.68-13.824z" fill="#91959B" p-id="34980"></path><path d="M791.04 328.192c-47.104-5.12-41.984 40.448-48.128 93.184-6.144 52.736-20.992 93.696 25.6 98.816 47.104 5.12 90.112-34.304 96.256-87.552 6.656-52.736-26.624-99.328-73.728-104.448z" fill="#484848" p-id="34981"></path><path d="M237.056 328.192c47.104-5.12 41.984 40.448 48.128 93.184s21.504 93.696-25.6 98.816-90.112-34.304-96.256-87.552c-6.144-52.736 27.136-99.328 73.728-104.448z" fill="#333333" p-id="34982"></path><path d="M581.632 554.496c26.112-4.096 50.176 5.12 54.272 21.504 4.096 15.872-13.824 32.768-39.936 36.864-26.112 4.096-50.176-5.12-54.272-21.504-3.584-15.872 14.336-32.256 39.936-36.864z" fill="#484848" p-id="34983"></path><path d="M519.68 98.304c-4.608 0-7.168 0.512-7.168 0.512S321.536 71.68 265.728 341.504c-18.432 2.56-24.064-11.776-24.064-11.776s21.504-257.024 270.848-257.024h7.168v25.6z" fill="#5F6366" p-id="34984"></path></svg>